#!OML:ASF E:\Mandelcareful walks\Project 1\Capture day 1\Session 1\Subject1.ASF
:FULLY-SPECIFIED
:DEGREES
270
root 6.20728 14.8944 -2.64962 -162.656 25.7635 170.903
lowerback 27.7673 1.89892 -2.05134
upperback 6.32583 2.73952 -4.7817
thorax -8.08169 1.8533 -5.17052
lowerneck -34.0167 2.74165 -1.28176
upperneck 14.0725 7.07042 -9.59982
head 10.3101 2.11784 -2.0051
rclavicle -5.80451e-014 8.22969e-014
rhumerus -4.79668 4.64552 -76.5226
rradius 71.5038
rwrist -12.371
rhand -20.452 -22.6083
rfingers 7.12502
rthumb 5.90345 -52.506
lclavicle -5.80451e-014 8.22969e-014
lhumerus -18.0646 -34.352 67.8504
lradius 74.4381
lwrist 20.5551
lhand -18.4575 -17.3939
lfingers 7.12502
lthumb 7.82882 12.4411
rfemur -53.6931 -20.4517 21.1634
rtibia 72.8523
rfoot -34.1652 -7.79394
rtoes -2.23307
lfemur -71.3892 13.6174 -34.345
ltibia 62.2798
lfoot -11.1701 -1.71254
ltoes -24.7625
271
root 6.24554 14.8578 -2.71522 -162.551 25.8609 170.98
lowerback 27.7466 1.88095 -1.83738
upperback 6.46467 2.80421 -4.93064
thorax -7.89304 1.89767 -5.47542
lowerneck -34.1073 2.48907 -1.64325
upperneck 14.0535 6.86992 -9.42878
head 10.2874 2.02989 -1.92265
rclavicle -9.93923e-015 5.725e-014
rhumerus -4.43654 4.68691 -76.7501
rradius 71.7532
rwrist -12.3186
rhand -18.7456 -22.2928
rfingers 7.12502
rthumb 7.55071 -52.138
lclavicle -9.93923e-015 5.725e-014
lhumerus -17.4257 -35.2104 67.0846
lradius 74.896
lwrist 20.5819
lhand -18.4663 -17.2867
lfingers 7.12502
lthumb 7.82033 12.5487
rfemur -53.7303 -20.4649 21.3169
rtibia 73.3265
rfoot -34.2959 -8.25313
rtoes -3.59959
lfemur -72.0629 13.0012 -34.7792
ltibia 62.2954
lfoot -10.7502 -2.09868
ltoes -25.2944
272
root 6.30002 14.8214 -2.77718 -162.676 25.9294 171.028
lowerback 28.0774 1.9328 -1.84732
upperback 6.54996 2.88553 -5.10924
thorax -7.94228 1.95343 -5.72149
lowerneck -34.1639 2.19409 -1.98098
upperneck 14.093 6.50428 -8.93997
head 10.2566 1.89765 -1.76051
rclavicle -2.46493e-014 -4.53229e-014
rhumerus -4.21904 4.58337 -77.178
rradius 71.9461
rwrist -12.3685
rhand -18.0024 -22.1178
rfingers 7.12502
rthumb 8.26798 -51.936
lclavicle -2.46493e-014 -4.53229e-014
lhumerus -16.8348 -36.3143 66.0353
lradius 75.5061
lwrist 20.8842
lhand -18.3251 -17.2481
lfingers 7.12502
lthumb 7.95653 12.5821
rfemur -53.318 -20.422 21.3855
rtibia 73.7805
rfoot -34.8955 -8.4555
rtoes -3.59772
lfemur -72.3397 12.6299 -35.1409
ltibia 62.3273
lfoot -10.0189 -2.24748
ltoes -24.7091
273
root 6.39664 14.8051 -2.83365 -163.188 26.8329 171.36
lowerback 28.8597 2.5081 -2.89917
upperback 6.67581 3.35572 -5.10054
thorax -8.19101 2.21348 -5.3216
lowerneck -34.2359 2.04874 -2.23047
upperneck 14.0529 6.31598 -8.5397
head 10.2158 1.84522 -1.61109
rclavicle -4.33351e-014 4.81059e-014
rhumerus -3.93872 4.70838 -77.7431
rradius 72.0913
rwrist -12.3021
rhand -17.7622 -22.1463
rfingers 7.12502
rthumb 8.49987 -51.9552
lclavicle -4.33351e-014 4.81059e-014
lhumerus -16.3345 -36.8273 65.1205
lradius 76.0205
lwrist 21.0511
lhand -17.9883 -17.2061
lfingers 7.12502
lthumb 8.28162 12.6116
rfemur -52.1225 -19.2322 21.4158
rtibia 74.1164
rfoot -35.5952 -8.8532
rtoes -3.57024
lfemur -72.1091 13.9548 -35.5434
ltibia 62.4546
lfoot -8.67063 -2.86539
ltoes -23.1286
274
root 6.42441 14.758 -2.91732 -162.889 27.1439 171.501
lowerback 28.6483 2.52872 -3.07823
upperback 6.66527 3.32913 -5.18166
thorax -8.10427 2.20241 -5.28426
lowerneck -34.2397 2.12286 -2.28907
upperneck 13.934 6.43055 -8.52692
head 10.1744 1.90335 -1.57566
rclavicle -5.1684e-015 -6.63941e-014
rhumerus -3.61992 5.13993 -78.1625
rradius 72.2129
rwrist -12.2103
rhand -18.1021 -22.3949
rfingers 7.12502
rthumb 8.17176 -52.2169
lclavicle -5.1684e-015 -6.63941e-014
lhumerus -16.0175 -36.8886 64.4389
lradius 76.4357
lwrist 21.0364
lhand -17.6912 -17.1937
lfingers 7.12502
lthumb 8.56839 12.6124
rfemur -52.4653 -19.0532 21.4933
rtibia 74.725
rfoot -35.6776 -9.00723
rtoes -4.6472
lfemur -72.905 14.0143 -36.4528
ltibia 62.6998
lfoot -6.81597 -2.9707
ltoes -19.7024
275
root 6.44636 14.7196 -3.00239 -162.501 27.3759 171.72
lowerback 28.4803 2.52661 -2.99059
upperback 6.64016 3.34232 -5.36402
thorax -8.03366 2.20727 -5.5345
lowerneck -34.2994 2.19217 -2.20511
upperneck 13.8291 6.45209 -8.43923
head 10.1421 1.93185 -1.55295
rclavicle 5.40694e-014 -9.14409e-015
rhumerus -3.33103 5.31733 -78.5657
rradius 72.304
rwrist -12.1193
rhand -18.8166 -22.6108
rfingers 7.12502
rthumb 7.48213 -52.4585
lclavicle 5.40694e-014 -9.14409e-015
lhumerus -15.4359 -37.2241 63.4422
lradius 76.8696
lwrist 21.0058
lhand -17.5847 -17.1311
lfingers 7.12502
lthumb 8.67109 12.6708
rfemur -52.826 -18.9707 21.6498
rtibia 75.3123
rfoot -35.6398 -9.10735
rtoes -5.90233
lfemur -73.3388 13.6605 -36.2426
ltibia 63.246
lfoot -6.58115 -0.441791
ltoes -13.5723
276
root 6.46789 14.6728 -3.10127 -162.243 27.7068 171.972
lowerback 28.4661 2.58513 -2.80569
upperback 6.6579 3.46802 -5.64877
thorax -7.96836 2.27307 -6.00732
lowerneck -34.4551 2.18945 -2.05066
upperneck 13.7883 6.30467 -8.17916
head 10.1337 1.89969 -1.51052
rclavicle 1.94809e-014 3.18055e-014
rhumerus -3.05049 5.1457 -79.003
rradius 72.4059
rwrist -12.1508
rhand -18.8103 -22.5422
rfingers 7.12502
rthumb 7.48825 -52.3897
lclavicle 1.94809e-014 3.18055e-014
lhumerus -14.6408 -37.7285 62.2902
lradius 77.3438
lwrist 21.1794
lhand -17.5212 -17.0279
lfingers 7.12502
lthumb 8.73243 12.7715
rfemur -52.9799 -18.9406 21.7145
rtibia 75.9717
rfoot -35.6573 -8.91874
rtoes -6.55182
lfemur -73.5642 13.4705 -36.1212
ltibia 63.9494
lfoot -7.16804 1.51261
ltoes -10.9847
277
root 6.4963 14.6334 -3.20333 -162.183 28.0556 172.183
lowerback 28.6262 2.7216 -3.06452
upperback 6.67378 3.5699 -5.70565
thorax -8.02838 2.32955 -5.97163
lowerneck -34.5542 2.22142 -1.99393
upperneck 13.7619 6.28608 -8.05137
head 10.1322 1.90735 -1.47683
rclavicle -2.5842e-014 3.95581e-014
rhumerus -2.72229 5.30683 -79.1806
rradius 72.4682
rwrist -12.0969
rhand -18.3859 -22.4349
rfingers 7.12502
rthumb 7.8979 -52.2674
lclavicle -2.5842e-014 3.95581e-014
lhumerus -14.1532 -37.9105 61.5976
lradius 77.7568
lwrist 21.2577
lhand -17.6003 -16.8914
lfingers 7.12502
lthumb 8.6561 12.9112
rfemur -52.8218 -18.9566 21.6456
rtibia 76.5766
rfoot -35.7753 -8.38991
rtoes -6.21178
lfemur -73.5065 13.4304 -35.8692
ltibia 64.7607
lfoot -8.22063 2.33954
ltoes -7.55335
278
root 6.52738 14.5976 -3.30614 -162.197 28.2419 172.324
lowerback 28.8569 2.79253 -3.44253
upperback 6.701 3.55631 -5.66683
thorax -8.13129 2.33276 -5.72404
lowerneck -34.5163 2.22823 -2.07992
upperneck 13.5742 6.29225 -7.94289
head 10.049 1.93071 -1.42232
rclavicle -1.66979e-014 -3.598e-014
rhumerus -2.4289 5.83824 -79.1758
rradius 72.5277
rwrist -11.8886
rhand -18.2056 -22.4622
rfingers 7.12502
rthumb 8.07195 -52.2881
lclavicle -1.66979e-014 -3.598e-014
lhumerus -13.7639 -37.9755 60.9542
lradius 78.1993
lwrist 21.1998
lhand -17.8697 -16.6163
lfingers 7.12502
lthumb 8.39611 13.1968
rfemur -52.5662 -19.1048 21.4753
rtibia 77.1115
rfoot -35.8683 -7.73985
rtoes -5.62501
lfemur -73.3449 13.3176 -35.5863
ltibia 65.5472
lfoot -9.22081 2.72504
ltoes -4.12287
279
root 6.5576 14.5589 -3.411 -162.061 28.3377 172.505
lowerback 29.0763 2.81846 -3.63261
upperback 6.67302 3.52105 -5.72453
thorax -8.27664 2.32002 -5.69089
lowerneck -34.4101 2.17343 -2.21783
upperneck 13.2959 6.18128 -7.65072
head 9.90704 1.92569 -1.31488
rclavicle 5.56597e-015 -1.78906e-014
rhumerus -2.31756 6.21161 -79.2351
rradius 72.6592
rwrist -11.9495
rhand -18.3942 -22.5055
rfingers 7.12502
rthumb 7.88991 -52.3383
lclavicle 5.56597e-015 -1.78906e-014
lhumerus -13.2139 -38.1473 60.1349
lradius 78.6374
lwrist 21.1321
lhand -18.0748 -16.4582
lfingers 7.12502
lthumb 8.19813 13.3627
rfemur -52.4348 -19.3024 21.4013
rtibia 77.6649
rfoot -35.879 -7.32844
rtoes -5.95014
lfemur -73.3993 13.2014 -35.3668
ltibia 66.3201
lfoot -9.96839 2.93701
ltoes -3.83938
280
root 6.58223 14.5302 -3.52192 -161.953 28.4507 172.718
lowerback 29.4281 2.8398 -3.82505
upperback 6.62432 3.46708 -5.77613
thorax -8.5114 2.29719 -5.6565
lowerneck -34.4741 2.17356 -2.42613
upperneck 13.1907 6.18198 -7.29816
head 9.85353 1.96151 -1.15567
rclavicle 2.78299e-015 -6.16232e-014
rhumerus -2.25897 6.52221 -79.2851
rradius 72.8117
rwrist -12.1269
rhand -18.803 -22.4056
rfingers 7.12502
rthumb 7.49531 -52.2528
lclavicle 2.78299e-015 -6.16232e-014
lhumerus -12.3948 -38.3054 59.3333
lradius 78.6688
lwrist 21.1109
lhand -18.2924 -16.6507
lfingers 7.12502
lthumb 7.98815 13.1784
rfemur -52.2164 -19.534 21.2802
rtibia 78.2582
rfoot -35.735 -6.87786
rtoes -6.39429
lfemur -73.4277 13.0956 -34.9719
ltibia 67.0826
lfoot -10.5747 2.79602
ltoes -1.75809
